<mxfile host="app.diagrams.net" modified="2023-08-23T11:02:27.228Z" agent="Mozilla/5.0 (Windows NT 10.0; Win64; x64; rv:109.0) Gecko/20100101 Firefox/116.0" etag="0r_8HQyk-4aTWGP32WB8" version="21.6.8" type="device">
  <diagram id="C5RBs43oDa-KdzZeNtuy" name="Page-1">
    <mxGraphModel dx="1925" dy="1815" grid="1" gridSize="10" guides="1" tooltips="1" connect="1" arrows="1" fold="1" page="1" pageScale="1" pageWidth="827" pageHeight="1169" math="0" shadow="0">
      <root>
        <mxCell id="WIyWlLk6GJQsqaUBKTNV-0" />
        <mxCell id="WIyWlLk6GJQsqaUBKTNV-1" parent="WIyWlLk6GJQsqaUBKTNV-0" />
        <mxCell id="5dLH2-bOq6MJYjy3w7BF-282" value="Class diagram" style="swimlane;startSize=23;" parent="WIyWlLk6GJQsqaUBKTNV-1" vertex="1">
          <mxGeometry x="-400" y="-960" width="850" height="600" as="geometry" />
        </mxCell>
        <mxCell id="5dLH2-bOq6MJYjy3w7BF-292" value="User" style="swimlane;fontStyle=0;align=center;verticalAlign=top;childLayout=stackLayout;horizontal=1;startSize=26;horizontalStack=0;resizeParent=1;resizeLast=0;collapsible=1;marginBottom=0;rounded=0;shadow=0;strokeWidth=1;" parent="5dLH2-bOq6MJYjy3w7BF-282" vertex="1">
          <mxGeometry x="50" y="57" width="160" height="138" as="geometry">
            <mxRectangle x="230" y="140" width="160" height="26" as="alternateBounds" />
          </mxGeometry>
        </mxCell>
        <mxCell id="5dLH2-bOq6MJYjy3w7BF-293" value="+ identifier: string" style="text;align=left;verticalAlign=top;spacingLeft=4;spacingRight=4;overflow=hidden;rotatable=0;points=[[0,0.5],[1,0.5]];portConstraint=eastwest;" parent="5dLH2-bOq6MJYjy3w7BF-292" vertex="1">
          <mxGeometry y="26" width="160" height="26" as="geometry" />
        </mxCell>
        <mxCell id="5dLH2-bOq6MJYjy3w7BF-294" value="+ role: int" style="text;align=left;verticalAlign=top;spacingLeft=4;spacingRight=4;overflow=hidden;rotatable=0;points=[[0,0.5],[1,0.5]];portConstraint=eastwest;rounded=0;shadow=0;html=0;" parent="5dLH2-bOq6MJYjy3w7BF-292" vertex="1">
          <mxGeometry y="52" width="160" height="26" as="geometry" />
        </mxCell>
        <mxCell id="SX-rihnzQ8es6wSrGuTu-25" value="+ email: string" style="text;align=left;verticalAlign=top;spacingLeft=4;spacingRight=4;overflow=hidden;rotatable=0;points=[[0,0.5],[1,0.5]];portConstraint=eastwest;rounded=0;shadow=0;html=0;" parent="5dLH2-bOq6MJYjy3w7BF-292" vertex="1">
          <mxGeometry y="78" width="160" height="26" as="geometry" />
        </mxCell>
        <mxCell id="ggaZgJPCZ2kaR8DIM5gM-43" value="+ password: string" style="text;align=left;verticalAlign=top;spacingLeft=4;spacingRight=4;overflow=hidden;rotatable=0;points=[[0,0.5],[1,0.5]];portConstraint=eastwest;rounded=0;shadow=0;html=0;" vertex="1" parent="5dLH2-bOq6MJYjy3w7BF-292">
          <mxGeometry y="104" width="160" height="26" as="geometry" />
        </mxCell>
        <mxCell id="5dLH2-bOq6MJYjy3w7BF-297" value="" style="line;html=1;strokeWidth=1;align=left;verticalAlign=middle;spacingTop=-1;spacingLeft=3;spacingRight=3;rotatable=0;labelPosition=right;points=[];portConstraint=eastwest;" parent="5dLH2-bOq6MJYjy3w7BF-292" vertex="1">
          <mxGeometry y="130" width="160" height="8" as="geometry" />
        </mxCell>
        <mxCell id="5f2Y2o3vqF1S9tGnKY9q-0" value="Social" style="swimlane;fontStyle=0;align=center;verticalAlign=top;childLayout=stackLayout;horizontal=1;startSize=26;horizontalStack=0;resizeParent=1;resizeLast=0;collapsible=1;marginBottom=0;rounded=0;shadow=0;strokeWidth=1;" parent="5dLH2-bOq6MJYjy3w7BF-282" vertex="1">
          <mxGeometry x="50" y="477" width="160" height="86" as="geometry">
            <mxRectangle x="550" y="140" width="160" height="26" as="alternateBounds" />
          </mxGeometry>
        </mxCell>
        <mxCell id="5f2Y2o3vqF1S9tGnKY9q-1" value="+ url: string" style="text;align=left;verticalAlign=top;spacingLeft=4;spacingRight=4;overflow=hidden;rotatable=0;points=[[0,0.5],[1,0.5]];portConstraint=eastwest;" parent="5f2Y2o3vqF1S9tGnKY9q-0" vertex="1">
          <mxGeometry y="26" width="160" height="26" as="geometry" />
        </mxCell>
        <mxCell id="5f2Y2o3vqF1S9tGnKY9q-4" value="" style="line;html=1;strokeWidth=1;align=left;verticalAlign=middle;spacingTop=-1;spacingLeft=3;spacingRight=3;rotatable=0;labelPosition=right;points=[];portConstraint=eastwest;" parent="5f2Y2o3vqF1S9tGnKY9q-0" vertex="1">
          <mxGeometry y="52" width="160" height="8" as="geometry" />
        </mxCell>
        <mxCell id="ggaZgJPCZ2kaR8DIM5gM-41" value="+ findLogo(): string" style="text;align=left;verticalAlign=top;spacingLeft=4;spacingRight=4;overflow=hidden;rotatable=0;points=[[0,0.5],[1,0.5]];portConstraint=eastwest;" vertex="1" parent="5f2Y2o3vqF1S9tGnKY9q-0">
          <mxGeometry y="60" width="160" height="26" as="geometry" />
        </mxCell>
        <mxCell id="5dLH2-bOq6MJYjy3w7BF-324" value="Comment" style="swimlane;fontStyle=0;align=center;verticalAlign=top;childLayout=stackLayout;horizontal=1;startSize=26;horizontalStack=0;resizeParent=1;resizeLast=0;collapsible=1;marginBottom=0;rounded=0;shadow=0;strokeWidth=1;" parent="5dLH2-bOq6MJYjy3w7BF-282" vertex="1">
          <mxGeometry x="640" y="127" width="160" height="112" as="geometry">
            <mxRectangle x="550" y="140" width="160" height="26" as="alternateBounds" />
          </mxGeometry>
        </mxCell>
        <mxCell id="5dLH2-bOq6MJYjy3w7BF-326" value="+ author: string" style="text;align=left;verticalAlign=top;spacingLeft=4;spacingRight=4;overflow=hidden;rotatable=0;points=[[0,0.5],[1,0.5]];portConstraint=eastwest;rounded=0;shadow=0;html=0;" parent="5dLH2-bOq6MJYjy3w7BF-324" vertex="1">
          <mxGeometry y="26" width="160" height="26" as="geometry" />
        </mxCell>
        <mxCell id="5dLH2-bOq6MJYjy3w7BF-327" value="+ content: string" style="text;align=left;verticalAlign=top;spacingLeft=4;spacingRight=4;overflow=hidden;rotatable=0;points=[[0,0.5],[1,0.5]];portConstraint=eastwest;rounded=0;shadow=0;html=0;" parent="5dLH2-bOq6MJYjy3w7BF-324" vertex="1">
          <mxGeometry y="52" width="160" height="26" as="geometry" />
        </mxCell>
        <mxCell id="ggaZgJPCZ2kaR8DIM5gM-24" value="+ status: Int" style="text;align=left;verticalAlign=top;spacingLeft=4;spacingRight=4;overflow=hidden;rotatable=0;points=[[0,0.5],[1,0.5]];portConstraint=eastwest;rounded=0;shadow=0;html=0;" vertex="1" parent="5dLH2-bOq6MJYjy3w7BF-324">
          <mxGeometry y="78" width="160" height="26" as="geometry" />
        </mxCell>
        <mxCell id="5dLH2-bOq6MJYjy3w7BF-328" value="" style="line;html=1;strokeWidth=1;align=left;verticalAlign=middle;spacingTop=-1;spacingLeft=3;spacingRight=3;rotatable=0;labelPosition=right;points=[];portConstraint=eastwest;" parent="5dLH2-bOq6MJYjy3w7BF-324" vertex="1">
          <mxGeometry y="104" width="160" height="8" as="geometry" />
        </mxCell>
        <mxCell id="5f2Y2o3vqF1S9tGnKY9q-8" value="Category" style="swimlane;fontStyle=0;align=center;verticalAlign=top;childLayout=stackLayout;horizontal=1;startSize=26;horizontalStack=0;resizeParent=1;resizeLast=0;collapsible=1;marginBottom=0;rounded=0;shadow=0;strokeWidth=1;" parent="5dLH2-bOq6MJYjy3w7BF-282" vertex="1">
          <mxGeometry x="630" y="343" width="160" height="60" as="geometry">
            <mxRectangle x="550" y="140" width="160" height="26" as="alternateBounds" />
          </mxGeometry>
        </mxCell>
        <mxCell id="5f2Y2o3vqF1S9tGnKY9q-10" value="+ value: string" style="text;align=left;verticalAlign=top;spacingLeft=4;spacingRight=4;overflow=hidden;rotatable=0;points=[[0,0.5],[1,0.5]];portConstraint=eastwest;rounded=0;shadow=0;html=0;" parent="5f2Y2o3vqF1S9tGnKY9q-8" vertex="1">
          <mxGeometry y="26" width="160" height="26" as="geometry" />
        </mxCell>
        <mxCell id="5f2Y2o3vqF1S9tGnKY9q-11" value="" style="line;html=1;strokeWidth=1;align=left;verticalAlign=middle;spacingTop=-1;spacingLeft=3;spacingRight=3;rotatable=0;labelPosition=right;points=[];portConstraint=eastwest;" parent="5f2Y2o3vqF1S9tGnKY9q-8" vertex="1">
          <mxGeometry y="52" width="160" height="8" as="geometry" />
        </mxCell>
        <mxCell id="5dLH2-bOq6MJYjy3w7BF-298" value="Profile" style="swimlane;fontStyle=0;align=center;verticalAlign=top;childLayout=stackLayout;horizontal=1;startSize=26;horizontalStack=0;resizeParent=1;resizeLast=0;collapsible=1;marginBottom=0;rounded=0;shadow=0;strokeWidth=1;" parent="5dLH2-bOq6MJYjy3w7BF-282" vertex="1">
          <mxGeometry x="50" y="256" width="160" height="138" as="geometry">
            <mxRectangle x="130" y="380" width="160" height="26" as="alternateBounds" />
          </mxGeometry>
        </mxCell>
        <mxCell id="5dLH2-bOq6MJYjy3w7BF-300" value="+ fullName: string" style="text;align=left;verticalAlign=top;spacingLeft=4;spacingRight=4;overflow=hidden;rotatable=0;points=[[0,0.5],[1,0.5]];portConstraint=eastwest;rounded=0;shadow=0;html=0;" parent="5dLH2-bOq6MJYjy3w7BF-298" vertex="1">
          <mxGeometry y="26" width="160" height="26" as="geometry" />
        </mxCell>
        <mxCell id="5dLH2-bOq6MJYjy3w7BF-302" value="+ slogan: string" style="text;align=left;verticalAlign=top;spacingLeft=4;spacingRight=4;overflow=hidden;rotatable=0;points=[[0,0.5],[1,0.5]];portConstraint=eastwest;rounded=0;shadow=0;html=0;" parent="5dLH2-bOq6MJYjy3w7BF-298" vertex="1">
          <mxGeometry y="52" width="160" height="26" as="geometry" />
        </mxCell>
        <mxCell id="ggaZgJPCZ2kaR8DIM5gM-36" value="+ banner: string" style="text;align=left;verticalAlign=top;spacingLeft=4;spacingRight=4;overflow=hidden;rotatable=0;points=[[0,0.5],[1,0.5]];portConstraint=eastwest;rounded=0;shadow=0;html=0;" vertex="1" parent="5dLH2-bOq6MJYjy3w7BF-298">
          <mxGeometry y="78" width="160" height="26" as="geometry" />
        </mxCell>
        <mxCell id="5dLH2-bOq6MJYjy3w7BF-301" value="+ logo: string" style="text;align=left;verticalAlign=top;spacingLeft=4;spacingRight=4;overflow=hidden;rotatable=0;points=[[0,0.5],[1,0.5]];portConstraint=eastwest;rounded=0;shadow=0;html=0;" parent="5dLH2-bOq6MJYjy3w7BF-298" vertex="1">
          <mxGeometry y="104" width="160" height="26" as="geometry" />
        </mxCell>
        <mxCell id="5dLH2-bOq6MJYjy3w7BF-307" value="" style="line;html=1;strokeWidth=1;align=left;verticalAlign=middle;spacingTop=-1;spacingLeft=3;spacingRight=3;rotatable=0;labelPosition=right;points=[];portConstraint=eastwest;" parent="5dLH2-bOq6MJYjy3w7BF-298" vertex="1">
          <mxGeometry y="130" width="160" height="8" as="geometry" />
        </mxCell>
        <mxCell id="5dLH2-bOq6MJYjy3w7BF-318" value="Post" style="swimlane;fontStyle=0;align=center;verticalAlign=top;childLayout=stackLayout;horizontal=1;startSize=26;horizontalStack=0;resizeParent=1;resizeLast=0;collapsible=1;marginBottom=0;rounded=0;shadow=0;strokeWidth=1;" parent="5dLH2-bOq6MJYjy3w7BF-282" vertex="1">
          <mxGeometry x="370" y="237" width="160" height="190" as="geometry">
            <mxRectangle x="550" y="140" width="160" height="26" as="alternateBounds" />
          </mxGeometry>
        </mxCell>
        <mxCell id="5dLH2-bOq6MJYjy3w7BF-320" value="+ author: string" style="text;align=left;verticalAlign=top;spacingLeft=4;spacingRight=4;overflow=hidden;rotatable=0;points=[[0,0.5],[1,0.5]];portConstraint=eastwest;rounded=0;shadow=0;html=0;" parent="5dLH2-bOq6MJYjy3w7BF-318" vertex="1">
          <mxGeometry y="26" width="160" height="26" as="geometry" />
        </mxCell>
        <mxCell id="5dLH2-bOq6MJYjy3w7BF-319" value="+ title: string" style="text;align=left;verticalAlign=top;spacingLeft=4;spacingRight=4;overflow=hidden;rotatable=0;points=[[0,0.5],[1,0.5]];portConstraint=eastwest;" parent="5dLH2-bOq6MJYjy3w7BF-318" vertex="1">
          <mxGeometry y="52" width="160" height="26" as="geometry" />
        </mxCell>
        <mxCell id="5dLH2-bOq6MJYjy3w7BF-321" value="+ excerpt: string" style="text;align=left;verticalAlign=top;spacingLeft=4;spacingRight=4;overflow=hidden;rotatable=0;points=[[0,0.5],[1,0.5]];portConstraint=eastwest;rounded=0;shadow=0;html=0;" parent="5dLH2-bOq6MJYjy3w7BF-318" vertex="1">
          <mxGeometry y="78" width="160" height="26" as="geometry" />
        </mxCell>
        <mxCell id="5dLH2-bOq6MJYjy3w7BF-314" value="+ content: string" style="text;align=left;verticalAlign=top;spacingLeft=4;spacingRight=4;overflow=hidden;rotatable=0;points=[[0,0.5],[1,0.5]];portConstraint=eastwest;rounded=0;shadow=0;html=0;" parent="5dLH2-bOq6MJYjy3w7BF-318" vertex="1">
          <mxGeometry y="104" width="160" height="26" as="geometry" />
        </mxCell>
        <mxCell id="SX-rihnzQ8es6wSrGuTu-6" value="+ lastDate: datetime" style="text;align=left;verticalAlign=top;spacingLeft=4;spacingRight=4;overflow=hidden;rotatable=0;points=[[0,0.5],[1,0.5]];portConstraint=eastwest;rounded=0;shadow=0;html=0;" parent="5dLH2-bOq6MJYjy3w7BF-318" vertex="1">
          <mxGeometry y="130" width="160" height="26" as="geometry" />
        </mxCell>
        <mxCell id="5dLH2-bOq6MJYjy3w7BF-323" value="" style="line;html=1;strokeWidth=1;align=left;verticalAlign=middle;spacingTop=-1;spacingLeft=3;spacingRight=3;rotatable=0;labelPosition=right;points=[];portConstraint=eastwest;" parent="5dLH2-bOq6MJYjy3w7BF-318" vertex="1">
          <mxGeometry y="156" width="160" height="8" as="geometry" />
        </mxCell>
        <mxCell id="ggaZgJPCZ2kaR8DIM5gM-42" value="+ edit(postId int): Post" style="text;align=left;verticalAlign=top;spacingLeft=4;spacingRight=4;overflow=hidden;rotatable=0;points=[[0,0.5],[1,0.5]];portConstraint=eastwest;" vertex="1" parent="5dLH2-bOq6MJYjy3w7BF-318">
          <mxGeometry y="164" width="160" height="26" as="geometry" />
        </mxCell>
        <mxCell id="ggaZgJPCZ2kaR8DIM5gM-15" value="" style="endArrow=none;html=1;rounded=0;edgeStyle=orthogonalEdgeStyle;entryX=0.5;entryY=0;entryDx=0;entryDy=0;" edge="1" parent="5dLH2-bOq6MJYjy3w7BF-282" source="5dLH2-bOq6MJYjy3w7BF-324" target="5dLH2-bOq6MJYjy3w7BF-318">
          <mxGeometry width="50" height="50" relative="1" as="geometry">
            <mxPoint x="580" y="452" as="sourcePoint" />
            <mxPoint x="420" y="217" as="targetPoint" />
          </mxGeometry>
        </mxCell>
        <mxCell id="ggaZgJPCZ2kaR8DIM5gM-16" value="1" style="edgeLabel;html=1;align=center;verticalAlign=middle;resizable=0;points=[];" vertex="1" connectable="0" parent="ggaZgJPCZ2kaR8DIM5gM-15">
          <mxGeometry x="0.7584" relative="1" as="geometry">
            <mxPoint as="offset" />
          </mxGeometry>
        </mxCell>
        <mxCell id="ggaZgJPCZ2kaR8DIM5gM-17" value="1" style="edgeLabel;html=1;align=center;verticalAlign=middle;resizable=0;points=[];" vertex="1" connectable="0" parent="ggaZgJPCZ2kaR8DIM5gM-15">
          <mxGeometry x="-0.67" relative="1" as="geometry">
            <mxPoint x="20" as="offset" />
          </mxGeometry>
        </mxCell>
        <mxCell id="ggaZgJPCZ2kaR8DIM5gM-35" value="0..*" style="edgeLabel;html=1;align=center;verticalAlign=middle;resizable=0;points=[];" vertex="1" connectable="0" parent="ggaZgJPCZ2kaR8DIM5gM-15">
          <mxGeometry x="0.7656" y="-1" relative="1" as="geometry">
            <mxPoint as="offset" />
          </mxGeometry>
        </mxCell>
        <mxCell id="ggaZgJPCZ2kaR8DIM5gM-21" value="" style="endArrow=none;html=1;rounded=0;edgeStyle=orthogonalEdgeStyle;" edge="1" parent="5dLH2-bOq6MJYjy3w7BF-282" source="5dLH2-bOq6MJYjy3w7BF-298" target="5dLH2-bOq6MJYjy3w7BF-292">
          <mxGeometry width="50" height="50" relative="1" as="geometry">
            <mxPoint x="580" y="347" as="sourcePoint" />
            <mxPoint x="630" y="297" as="targetPoint" />
            <Array as="points">
              <mxPoint x="280" y="267" />
              <mxPoint x="280" y="126" />
            </Array>
          </mxGeometry>
        </mxCell>
        <mxCell id="ggaZgJPCZ2kaR8DIM5gM-22" value="1" style="edgeLabel;html=1;align=center;verticalAlign=middle;resizable=0;points=[];" vertex="1" connectable="0" parent="ggaZgJPCZ2kaR8DIM5gM-21">
          <mxGeometry x="-0.8836" y="2" relative="1" as="geometry">
            <mxPoint as="offset" />
          </mxGeometry>
        </mxCell>
        <mxCell id="ggaZgJPCZ2kaR8DIM5gM-23" value="1" style="edgeLabel;html=1;align=center;verticalAlign=middle;resizable=0;points=[];" vertex="1" connectable="0" parent="ggaZgJPCZ2kaR8DIM5gM-21">
          <mxGeometry x="0.911" y="-1" relative="1" as="geometry">
            <mxPoint as="offset" />
          </mxGeometry>
        </mxCell>
        <mxCell id="ggaZgJPCZ2kaR8DIM5gM-32" value="" style="endArrow=none;html=1;rounded=0;edgeStyle=orthogonalEdgeStyle;exitX=0;exitY=0.5;exitDx=0;exitDy=0;entryX=1;entryY=0.5;entryDx=0;entryDy=0;" edge="1" parent="5dLH2-bOq6MJYjy3w7BF-282" source="5dLH2-bOq6MJYjy3w7BF-320">
          <mxGeometry width="50" height="50" relative="1" as="geometry">
            <mxPoint x="545" y="87" as="sourcePoint" />
            <mxPoint x="210" y="96" as="targetPoint" />
            <Array as="points">
              <mxPoint x="310" y="276" />
              <mxPoint x="310" y="96" />
            </Array>
          </mxGeometry>
        </mxCell>
        <mxCell id="ggaZgJPCZ2kaR8DIM5gM-33" value="0..*" style="edgeLabel;html=1;align=center;verticalAlign=middle;resizable=0;points=[];" vertex="1" connectable="0" parent="ggaZgJPCZ2kaR8DIM5gM-32">
          <mxGeometry x="0.7584" relative="1" as="geometry">
            <mxPoint as="offset" />
          </mxGeometry>
        </mxCell>
        <mxCell id="ggaZgJPCZ2kaR8DIM5gM-34" value="1" style="edgeLabel;html=1;align=center;verticalAlign=middle;resizable=0;points=[];" vertex="1" connectable="0" parent="ggaZgJPCZ2kaR8DIM5gM-32">
          <mxGeometry x="-0.67" relative="1" as="geometry">
            <mxPoint x="36" as="offset" />
          </mxGeometry>
        </mxCell>
        <mxCell id="ggaZgJPCZ2kaR8DIM5gM-7" value="" style="endArrow=none;html=1;rounded=0;edgeStyle=orthogonalEdgeStyle;" edge="1" parent="5dLH2-bOq6MJYjy3w7BF-282" source="5f2Y2o3vqF1S9tGnKY9q-8" target="5dLH2-bOq6MJYjy3w7BF-318">
          <mxGeometry width="50" height="50" relative="1" as="geometry">
            <mxPoint x="420" y="482" as="sourcePoint" />
            <mxPoint x="580" y="337" as="targetPoint" />
            <Array as="points">
              <mxPoint x="710" y="467" />
              <mxPoint x="450" y="467" />
            </Array>
          </mxGeometry>
        </mxCell>
        <mxCell id="ggaZgJPCZ2kaR8DIM5gM-8" value="1" style="edgeLabel;html=1;align=center;verticalAlign=middle;resizable=0;points=[];" vertex="1" connectable="0" parent="ggaZgJPCZ2kaR8DIM5gM-7">
          <mxGeometry x="0.9177" y="3" relative="1" as="geometry">
            <mxPoint as="offset" />
          </mxGeometry>
        </mxCell>
        <mxCell id="ggaZgJPCZ2kaR8DIM5gM-9" value="1" style="edgeLabel;html=1;align=center;verticalAlign=middle;resizable=0;points=[];" vertex="1" connectable="0" parent="ggaZgJPCZ2kaR8DIM5gM-7">
          <mxGeometry x="-0.8903" relative="1" as="geometry">
            <mxPoint as="offset" />
          </mxGeometry>
        </mxCell>
        <mxCell id="ggaZgJPCZ2kaR8DIM5gM-38" value="" style="endArrow=none;html=1;rounded=0;edgeStyle=orthogonalEdgeStyle;exitX=0.5;exitY=0;exitDx=0;exitDy=0;entryX=0.25;entryY=1;entryDx=0;entryDy=0;" edge="1" parent="5dLH2-bOq6MJYjy3w7BF-282" source="5f2Y2o3vqF1S9tGnKY9q-0" target="5dLH2-bOq6MJYjy3w7BF-292">
          <mxGeometry width="50" height="50" relative="1" as="geometry">
            <mxPoint x="240" y="494" as="sourcePoint" />
            <mxPoint x="240" y="353" as="targetPoint" />
            <Array as="points">
              <mxPoint x="130" y="430" />
              <mxPoint x="30" y="430" />
              <mxPoint x="30" y="210" />
              <mxPoint x="90" y="210" />
            </Array>
          </mxGeometry>
        </mxCell>
        <mxCell id="ggaZgJPCZ2kaR8DIM5gM-39" value="1" style="edgeLabel;html=1;align=center;verticalAlign=middle;resizable=0;points=[];" vertex="1" connectable="0" parent="ggaZgJPCZ2kaR8DIM5gM-38">
          <mxGeometry x="-0.8836" y="2" relative="1" as="geometry">
            <mxPoint y="9" as="offset" />
          </mxGeometry>
        </mxCell>
        <mxCell id="ggaZgJPCZ2kaR8DIM5gM-40" value="0..*" style="edgeLabel;html=1;align=center;verticalAlign=middle;resizable=0;points=[];" vertex="1" connectable="0" parent="ggaZgJPCZ2kaR8DIM5gM-38">
          <mxGeometry x="0.911" y="-1" relative="1" as="geometry">
            <mxPoint y="9" as="offset" />
          </mxGeometry>
        </mxCell>
      </root>
    </mxGraphModel>
  </diagram>
</mxfile>
